<svg id="Layer_1" data-name="Layer 1" xmlns="http://www.w3.org/2000/svg" xmlns:xlink="http://www.w3.org/1999/xlink" viewBox="0 0 328.83 58.79"><defs><style>.cls-1{fill:url(#linear-gradient);}</style><linearGradient id="linear-gradient" x1="-29.23" y1="-72.15" x2="382.84" y2="165.76" gradientUnits="userSpaceOnUse"><stop offset="0" stop-color="aqua"/><stop offset="0.12" stop-color="#17e8ff"/><stop offset="0.37" stop-color="#54abff"/><stop offset="0.72" stop-color="#b44bff"/><stop offset="0.99" stop-color="#f0f"/></linearGradient></defs><path class="cls-1" d="M20,1.6,0,58H10.55L15.28,43.4H36.09L40.82,58H51.37L31.33,1.6Zm-2.2,34,7.79-24h.19l7.79,24ZM83.63,23.67H83.4a13.69,13.69,0,0,0-5.14-5.84,14.29,14.29,0,0,0-7.79-2.13,15.67,15.67,0,0,0-9,2.6,16.78,16.78,0,0,0-5.94,7.42A28.54,28.54,0,0,0,53.4,37.23v0a28.74,28.74,0,0,0,2.09,11.48,16.59,16.59,0,0,0,5.94,7.44,15.84,15.84,0,0,0,9.08,2.6,14.38,14.38,0,0,0,7.81-2.09,13.55,13.55,0,0,0,5.08-5.76h.23v7h9.69V1.6H83.63Zm0,13.6a17.88,17.88,0,0,1-1.29,7.07A10.67,10.67,0,0,1,78.75,49a8.9,8.9,0,0,1-5.31,1.64A9.09,9.09,0,0,1,68,49a10.22,10.22,0,0,1-3.52-4.62,18.76,18.76,0,0,1-1.23-7.11v0a18.54,18.54,0,0,1,1.23-7.11A10.23,10.23,0,0,1,68,25.53a9.09,9.09,0,0,1,5.41-1.62,8.79,8.79,0,0,1,5.29,1.64,10.86,10.86,0,0,1,3.59,4.63,17.33,17.33,0,0,1,1.31,7ZM102.5,1.6h35.94v8.48H112.58V26.76h23.63V35H112.58V58H102.5Zm69.22,15h9.73V58h-9.73V51.48h-.2a12.6,12.6,0,0,1-4.76,5.32,14.62,14.62,0,0,1-7.89,2,15.16,15.16,0,0,1-7.76-1.86,12,12,0,0,1-4.86-5.33,18.76,18.76,0,0,1-1.68-8.24V16.56h9.69V41.41q0,4.41,2.07,6.81t6.25,2.4a9,9,0,0,0,4.82-1.26,8.62,8.62,0,0,0,3.19-3.54,11.72,11.72,0,0,0,1.13-5.27Zm48.51,22A9.53,9.53,0,0,1,223,45.7v0a11,11,0,0,1-2.23,6.86,14.36,14.36,0,0,1-6.15,4.57,23.45,23.45,0,0,1-9,1.62,24.25,24.25,0,0,1-9.28-1.6,13.45,13.45,0,0,1-8.65-11.25l0-.35h9.57l.08.35a6.57,6.57,0,0,0,2.59,4.18,9.7,9.7,0,0,0,5.76,1.48,12.47,12.47,0,0,0,4.07-.58,5.8,5.8,0,0,0,2.6-1.72,4.11,4.11,0,0,0,.91-2.66v0a3.87,3.87,0,0,0-1.25-3,10.19,10.19,0,0,0-4.49-1.89l-6.87-1.52q-5.94-1.29-8.93-4.22a10.12,10.12,0,0,1-3-7.54v0a11,11,0,0,1,2.07-6.64,13.6,13.6,0,0,1,5.82-4.46,22.19,22.19,0,0,1,8.71-1.6,20.79,20.79,0,0,1,8.83,1.72A14,14,0,0,1,219.79,22,12,12,0,0,1,222,28.52l0,.43h-9.06l0-.32a6.17,6.17,0,0,0-2.27-4.12,8.12,8.12,0,0,0-5.35-1.62,10.08,10.08,0,0,0-3.73.63,5.38,5.38,0,0,0-2.42,1.75,4.35,4.35,0,0,0-.84,2.66v0a3.85,3.85,0,0,0,1.35,3,10.35,10.35,0,0,0,4.55,1.95l6.87,1.52Q217.5,35.87,220.23,38.54Zm9.18-22h9.73V58h-9.73Zm8.71-15a5.08,5.08,0,0,1,1.57,3.77,5.08,5.08,0,0,1-1.57,3.75,5.52,5.52,0,0,1-7.69,0,5.11,5.11,0,0,1-1.56-3.75,5.11,5.11,0,0,1,1.56-3.77,5.57,5.57,0,0,1,7.69,0ZM276.23,18.3a20.84,20.84,0,0,0-10.57-2.6,20.6,20.6,0,0,0-10.5,2.6,17.86,17.86,0,0,0-7,7.42,24.73,24.73,0,0,0-2.5,11.47v.08a24.92,24.92,0,0,0,2.48,11.5,17.69,17.69,0,0,0,7,7.42,22.92,22.92,0,0,0,21.17,0,17.56,17.56,0,0,0,7-7.4,24.88,24.88,0,0,0,2.48-11.54v-.08a24.57,24.57,0,0,0-2.5-11.49A17.77,17.77,0,0,0,276.23,18.3Zm-.41,19a19.9,19.9,0,0,1-1.23,7.4,10.2,10.2,0,0,1-3.5,4.67,9.78,9.78,0,0,1-10.72,0,10.36,10.36,0,0,1-3.55-4.67,19.27,19.27,0,0,1-1.27-7.4v-.08a19,19,0,0,1,1.27-7.35,10.26,10.26,0,0,1,3.55-4.64,9,9,0,0,1,5.29-1.61A9.15,9.15,0,0,1,271,25.2a10.16,10.16,0,0,1,3.53,4.64,19.44,19.44,0,0,1,1.25,7.35Zm53-6.1V58H319.1V33.12q0-4.41-2.07-6.81t-6.21-2.4A9,9,0,0,0,306,25.18a8.52,8.52,0,0,0-3.21,3.51A11.61,11.61,0,0,0,301.64,34V58H292V16.56h9.69v6.49h.24a12.49,12.49,0,0,1,4.78-5.35,14.56,14.56,0,0,1,7.87-2q6.84,0,10.57,4.14T328.83,31.17Z"/></svg>